<svg xmlns="http://www.w3.org/2000/svg" viewBox="0 0 280 80" fill="none">
  <!-- Leaf/Plant Icon -->
  <g transform="translate(8, 8)">
    <!-- Main leaf shape -->
    <path d="M32 4 C20 4, 4 16, 4 32 C4 44 12 52 24 56 C24 44 28 36 32 28 C36 36 40 44 40 56 C52 52 60 44 60 32 C60 16 44 4 32 4Z" fill="#24663B"/>
    <!-- Inner leaf detail -->
    <path d="M32 4 C32 4, 32 20, 32 56" stroke="#FFFFFF" stroke-width="1.5" stroke-opacity="0.4"/>
    <!-- Left vein -->
    <path d="M32 20 C26 18, 18 22, 14 28" stroke="#FFFFFF" stroke-width="1" stroke-opacity="0.3"/>
    <!-- Right vein -->
    <path d="M32 20 C38 18, 46 22, 50 28" stroke="#FFFFFF" stroke-width="1" stroke-opacity="0.3"/>
    <!-- Stem -->
    <path d="M32 56 L32 64 C28 64, 22 62, 20 68" stroke="#24663B" stroke-width="2.5" stroke-linecap="round"/>
    <!-- Ground dots -->
    <circle cx="20" cy="70" r="2" fill="#24663B" opacity="0.8"/>
    <circle cx="32" cy="72" r="2" fill="#24663B" opacity="0.8"/>
    <circle cx="44" cy="70" r="2" fill="#24663B" opacity="0.8"/>
  </g>

  <!-- Company Name -->
  <text x="82" y="38" font-family="'Open Sans', Arial, sans-serif" font-weight="800" font-size="26" letter-spacing="2" fill="#24663B">EVERGROW</text>
  <text x="82" y="58" font-family="'Open Sans', Arial, sans-serif" font-weight="400" font-size="11" letter-spacing="4" fill="#24663B" opacity="0.75">LANDSCAPING</text>

  <!-- Decorative line under company name -->
  <line x1="82" y1="63" x2="272" y2="63" stroke="#24663B" stroke-width="0.75" opacity="0.3"/>
</svg>
